<?xml version="1.0" encoding="iso-8859-1"?>
<!DOCTYPE svg PUBLIC "-//W3C//DTD SVG 1.1//EN" "http://www.w3.org/Graphics/SVG/1.1/DTD/svg11.dtd">
<svg version="1.1" id="Capa_1" xmlns="http://www.w3.org/2000/svg" xmlns:xlink="http://www.w3.org/1999/xlink" x="0px" y="0px"
	 viewBox="0 0 620.477 620.477"
	 >
<g>
	<path  d="M582.135,236.646c0,0,0,0.474-0.095,1.408c-0.095,0.834-0.189,1.678-0.284,2.527
		c-0.095,0.455-0.095,0.834-0.171,1.299c0,0.28-0.095,0.659-0.189,1.028c-1.877,9.604-8.59,30.766-32.558,64.609
		c-0.626,0.877-1.309,1.83-1.973,2.768c-13.823,20.64-29.543,42.968-43.006,41.281c-2.427-0.284-4.551-1.081-6.561-2.029
		c-1.062-0.882-14.184-12.06-14.184-33.847v-32.529c0,0,0-20.204,0-47.106c0-22.588,25.617-37.251,33.904-41.385
		c0.417-0.247,0.834-0.46,1.271-0.673c0.872-0.417,1.46-0.678,1.46-0.678l0.075,0.123c5.442-2.384,11.378-3.892,17.711-3.892
		c24.632,0,44.675,19.981,44.675,44.584C582.23,234.969,582.23,235.812,582.135,236.646L582.135,236.646z M314.832,373.638
		c-40.171,45.808-95.251,66.277-137.427,55.232c-22.66-7.728-17.241-27.126-17.241-27.163c9.623-17.545,29.652-47.96,77.579-83.646
		c63.314-47.13,87.055-78.219,98.569-96.636c0,0,6.618-6.523,11.928,1.503C369.571,263.464,357.492,325,314.832,373.638
		L314.832,373.638z M117.143,376.71c-16.066-40.352-2.854-97.337,37.137-142.936c43.793-49.932,105.268-69.728,148.463-51.435
		c14.383,7.969,10.97,19.938,10.903,20.204c-9.149,18.763-33.184,57.863-87.728,94.052c-49.33,32.786-74.971,66.974-86.832,86.657
		C139.087,383.252,128.075,396.188,117.143,376.71L117.143,376.71z M534.502,136.949c-11.168,0-21.787,2.224-31.553,6.148
		c-0.36,0.124-0.664,0.28-1.005,0.417c-1.649,0.668-3.186,1.502-4.778,2.28c-3.697,2.138-7.642,5.224-14.032,11.173
		c0-14.971-1.005-27.348-2.654-37.744c-1.214-6.381-11.643-51.7-64.831-51.7H72.165C56.426,67.875,0,73.037,0,129.767v207.293
		c0,8.798,0.545,21.342,2.527,36.776v0.181c4.309,35.179,16.142,85.073,46.646,138.546c7.902,23.513,30.154,40.39,56.36,40.39
		h281.35c24.954,0,46.305-15.436,55.104-37.146c0-0.19,0.171-0.19,0.171-0.38c0.758-1.289,1.403-2.56,2.143-3.85
		c23.305-43.878,36.464-106.59,38.645-123.562c0.209,1.053,2.541,1.991,4.93,2.731c0.02-0.058,0.02-0.133,0.038-0.171
		c5.727,1.877,11.719,3.166,18.071,3.166c16.857,0,32.159-7.371,42.551-19.042c2.654-3.565,5.177-7.348,7.698-10.752
		c46.135-65.139,59.029-105.884,62.632-124.348c0.189-0.721,0.36-1.437,0.36-1.981c0.189-0.896,0.189-1.612,0.342-2.503
		c0.17-1.612,0.359-3.248,0.53-4.854c0.209-1.787,0.209-2.683,0.209-2.683c0.171-1.631,0.171-3.243,0.171-4.854
		C620.477,175.366,581.889,136.949,534.502,136.949L534.502,136.949z"/>
</g>
<g>
</g>
<g>
</g>
<g>
</g>
<g>
</g>
<g>
</g>
<g>
</g>
<g>
</g>
<g>
</g>
<g>
</g>
<g>
</g>
<g>
</g>
<g>
</g>
<g>
</g>
<g>
</g>
<g>
</g>
</svg>
